<?xml version="1.0" standalone="no"?>
<!DOCTYPE svg PUBLIC "-//W3C//DTD SVG 1.1//EN" "http://www.w3.org/Graphics/SVG/1.1/DTD/svg11.dtd">
<svg width="100%" height="100%" viewBox="0 0 59 39" version="1.1" xmlns="http://www.w3.org/2000/svg" xmlns:xlink="http://www.w3.org/1999/xlink" xml:space="preserve" style="fill-rule:evenodd;clip-rule:evenodd;stroke-linejoin:round;stroke-miterlimit:1.41421;">
    <g transform="matrix(1,0,0,1,-1,-1)">
        <g transform="matrix(0.0763172,0,0,0.0763172,-51.4956,-34.6612)">
            <g transform="matrix(2,0,0,2,0,0)">
                <path d="M359.567,241.796C357.291,241.031 352.281,242.247 352.25,251.218C352.25,249.007 352.264,252.568 352.234,261.796C352.218,259.385 350.031,266.72 350.008,271.985C349.998,279.045 349.988,281.407 349.975,278.552C349.963,282.511 349.95,283.763 349.937,285.978C349.925,293.19 349.912,283.069 349.897,293.606C349.884,287.873 350.914,303.552 350.901,301.463C350.885,308.777 350.916,307.651 350.901,308.796C350.885,307.408 352.637,314.894 351.567,318.463C350.567,321.797 349.736,331.177 349.718,329.406C349.703,332.441 349.688,327.245 349.671,339.766C349.656,336.991 349.64,349.817 349.625,347.978C349.607,351.265 351.249,358.894 351.234,357.463C351.218,356.823 349.546,364.553 349.532,365.167C349.517,359.954 349.502,380.134 349.489,372.496C349.474,381.353 349.459,375.65 349.446,380.742C349.431,382.546 349.914,392.348 349.901,389.463C349.888,393.485 349.38,389.849 349.369,395.85C349.355,398.038 349.345,397.816 349.336,402.347C349.313,401.737 349.296,401.325 349.28,413.017C349.25,423.174 349.232,428.892 349.232,422.444C349.214,425.77 350.296,426.292 352.049,432.161C353.801,433.876 356.227,434.836 358.903,439.603C358.903,440.662 369.554,445.333 370.635,444.814C373.597,445.751 374.567,448.463 378.234,449.463C381.47,449.117 386.545,455.816 390.494,458.5C394.443,460.757 397.725,463.077 400.679,463.573C403.632,464.472 406.257,468.168 408.893,468.792C412.236,471.284 422.085,478.028 422.085,477.398C427.257,482.645 430.822,480.132 432.401,480.462C435.402,480.738 440.911,478.374 443.099,476.179C445.234,474.462 454.234,471.629 456.078,468.608C460.538,461.299 465.239,463.992 473.137,458.5C481.035,454.538 488.933,447.821 494.856,445.509C500.78,441.964 504.729,439.603 504.729,439.603C510.081,436.401 510.089,430.941 512.567,428.463C514.734,426.296 514.536,418.971 514.567,413.016C514.584,410.037 514.601,408.554 514.622,402.347C514.634,396.67 513.554,393.562 513.567,394.129C513.578,396.67 514.679,388.399 514.692,388.7C514.705,392.2 514.72,387.649 514.733,380.409C514.748,367.893 514.761,377.18 514.775,372.791C514.791,376.4 513.219,365.427 513.234,367.129C513.249,362.619 514.851,352.699 514.867,355.451C514.881,350.394 514.896,350.622 514.914,346.594C514.929,340.034 514.945,338.802 514.96,335.564C514.974,337.467 514.992,328.896 515.007,327.091C515.023,327.917 515.038,319.425 515.052,319.224C515.07,311.739 513.368,313.653 514.234,311.796C514.247,307.042 515.129,304.712 515.143,300.575C515.159,298.639 515.173,299.514 515.186,292.976C515.199,293.167 515.213,281.178 515.226,285.976C515.239,285.467 513.224,283.939 513.234,280.463C513.248,286.524 515.287,273.826 515.297,272.329C515.317,268.648 515.338,264.642 515.353,261.659C515.382,255.201 513.941,252.402 513.941,251.756C513.973,244.341 511.234,243.463 506.567,243.129C506.567,241.889 500.159,238.48 493.556,240.894C490.255,238.866 486.771,245.384 482.792,241.435C478.812,239.904 474.338,243.075 469.056,242.024C463.775,240.429 458.502,242.214 452.656,241.423C446.81,241.722 440.39,240.792 432.815,240.894C429.843,241.537 426.873,237.881 423.922,239.269C420.972,238.731 415.567,237.129 411.901,239.463C406.124,239.833 403.765,242.951 398.483,240.894C393.201,240.234 388.249,237.703 383.793,239.876C379.336,238.546 374.567,239.796 372.074,240.894C365.471,244.881 359.567,241.28 359.567,241.796" style="fill:rgb(29,29,27);"/>
            </g>
            <g transform="matrix(2,0,0,2,0,0)">
                <path d="M434.96,327.528C439.208,325.718 440.537,324.97 449.638,327.125C457.797,329.05 465.45,332.478 472.676,336.685C474.892,337.977 475.44,339.743 474.159,342.652C473.169,344.907 470.06,350.392 467.716,350.773C461.635,351.755 447.491,337.363 440.815,338.049C435.347,338.611 408.338,374.063 407.816,380.989C407.397,386.622 414.469,409.396 417.147,414.199C419.828,419.002 431.572,428.289 433.075,428.56C436.538,429.184 448.989,426.083 457.597,419.74C463.407,415.459 469.546,407.3 473.726,406.953C477.315,407.305 479.815,411.937 479.293,414.557C478.776,417.178 469.952,423.388 467.689,425.237C455.495,435.195 432.436,448.912 421.686,446.683C417.136,445.738 397.594,426.317 395.557,423.743C393.518,421.172 387.742,385.487 387.304,383.749C386.54,380.737 398.723,351.28 402.269,347.654C407.199,342.617 430.71,329.34 434.96,327.528" style="fill:white;fill-rule:nonzero;"/>
            </g>
            <g transform="matrix(2,0,0,2,0,0)">
                <path d="M425.334,304.945C425.334,304.945 428.046,285.367 452.985,283.145C452.985,283.145 462.731,282.178 470.185,275.777C470.185,275.777 473.675,273.778 474.626,276.964C474.626,276.964 479.997,292.134 463.363,303.222C463.363,303.222 457.984,307.545 445.598,309.821C434.763,311.817 428.656,314.819 425.173,316.824C421.679,318.826 421.665,317.093 422.931,315.207C422.931,315.207 425.049,309.042 425.334,304.945" style="fill:rgb(58,170,53);fill-rule:nonzero;"/>
            </g>
            <g transform="matrix(0.203754,0,0,0.262368,1327.39,777.383)">
                <text x="-1131.96px" y="424.353px" style="font-family:'LucidaGrande';font-size:309.123px;fill:rgb(34,19,19);">B<tspan x="-941.788px -736.825px -626.651px -447.801px -239.97px 12.539px 189.73px 397.561px " y="424.353px 424.353px 424.353px 424.353px 424.353px 424.353px 424.353px 424.353px ">Y STOLTZ</tspan></text>
            </g>
            <g transform="matrix(4.20693,0,0,13.1032,937.591,527.131)">
                <text x="29.362px" y="31.633px" style="font-family:'LucidaGrande';font-size:12px;fill:black;">I</text>
            </g>
        </g>
    </g>
</svg>
